<?xml version="1.0" encoding="UTF-8" standalone="no" ?>
<!DOCTYPE svg PUBLIC "-//W3C//DTD SVG 1.1//EN" "http://www.w3.org/Graphics/SVG/1.1/DTD/svg11.dtd">
<svg xmlns="http://www.w3.org/2000/svg" xmlns:xlink="http://www.w3.org/1999/xlink" version="1.1" width="400" height="400" viewBox="0 0 400 400" xml:space="preserve">
<desc>Created with Fabric.js 3.6.2</desc>
<defs>
</defs>
<g transform="matrix(0.19 0 0 0.19 200 200)"  >
<path style="stroke: none; stroke-width: 1; stroke-dasharray: none; stroke-linecap: butt; stroke-dashoffset: 0; stroke-linejoin: miter; stroke-miterlimit: 4; fill: rgb(0,0,0); fill-rule: nonzero; opacity: 1;"  transform=" translate(-896, -896)" d="M 896 907 q -188 0 -321 -133 t -133 -320 q 0 -188 133 -321 t 321 -133 t 321 133 t 133 321 q 0 187 -133 320 t -321 133 z m 0 -677 q -92 0 -157.5 65.5 t -65.5 158.5 q 0 92 65.5 157.5 t 157.5 65.5 t 157.5 -65.5 t 65.5 -157.5 q 0 -93 -65.5 -158.5 t -157.5 -65.5 z m 523 732 q 13 27 15 49.5 t -4.5 40.5 t -26.5 38.5 t -42.5 37 t -61.5 41.5 q -115 73 -315 94 l 73 72 l 267 267 q 30 31 30 74 t -30 73 l -12 13 q -31 30 -74 30 t -74 -30 q -67 -68 -267 -268 l -267 268 q -31 30 -74 30 t -73 -30 l -12 -13 q -31 -30 -31 -73 t 31 -74 l 267 -267 l 72 -72 q -203 -21 -317 -94 q -39 -25 -61.5 -41.5 t -42.5 -37 t -26.5 -38.5 t -4.5 -40.5 t 15 -49.5 q 10 -20 28 -35 t 42 -22 t 56 2 t 65 35 q 5 4 15 11 t 43 24.5 t 69 30.5 t 92 24 t 113 11 q 91 0 174 -25.5 t 120 -50.5 l 38 -25 q 33 -26 65 -35 t 56 -2 t 42 22 t 28 35 z" stroke-linecap="round" />
</g>
</svg>