<svg width="163" height="81" viewBox="0 0 163 81" fill="none" xmlns="http://www.w3.org/2000/svg">
<path d="M31.0264 30.63L31.0964 37H31.5164L33.8264 30.42L45.2364 9H55.3864L35.7864 42.88C34.2464 45.54 32.8697 47.85 31.6564 49.81C30.443 51.77 29.2297 53.4033 28.0164 54.71C26.8497 55.97 25.5897 56.9267 24.2364 57.58C22.883 58.1867 21.2964 58.49 19.4764 58.49C16.6297 58.49 14.343 57.93 12.6164 56.81L16.6064 49.04C17.2597 49.4133 17.8664 49.67 18.4264 49.81C18.9864 49.9033 19.6164 49.95 20.3164 49.95C21.2964 49.95 22.253 49.46 23.1864 48.48C24.1197 47.4533 25.0297 46.1467 25.9164 44.56L16.1164 9H26.1264L31.0264 30.63ZM60.9093 9.35C61.7959 9.21 62.7993 9.07 63.9193 8.93C65.0393 8.79 66.2293 8.67333 67.4893 8.58C68.7493 8.48667 70.0326 8.41667 71.3393 8.37C72.6926 8.32333 73.9993 8.3 75.2593 8.3C77.4059 8.3 79.3893 8.53333 81.2093 9C83.0759 9.42 84.6626 10.0967 85.9693 11.03C87.3226 11.9633 88.3726 13.1767 89.1193 14.67C89.9126 16.1167 90.3093 17.8667 90.3093 19.92C90.3093 21.46 90.0526 22.9533 89.5393 24.4C89.0259 25.8 88.2793 27.06 87.2993 28.18C86.3659 29.3 85.2226 30.2333 83.8693 30.98C82.5626 31.7267 81.0693 32.2167 79.3893 32.45V32.8C80.2759 32.9867 81.1626 33.3367 82.0493 33.85C82.9359 34.3167 83.7293 34.9467 84.4293 35.74C85.1293 36.4867 85.6893 37.3967 86.1093 38.47C86.5293 39.4967 86.7393 40.6633 86.7393 41.97C86.7393 44.9567 86.1559 47.5233 84.9893 49.67C83.8226 51.77 82.2593 53.4967 80.2993 54.85C78.3393 56.1567 76.0526 57.1367 73.4393 57.79C70.8259 58.3967 68.0726 58.7 65.1793 58.7C64.4326 58.7 63.4526 58.7 62.2393 58.7C61.0726 58.7 59.8126 58.6533 58.4593 58.56C57.1059 58.5133 55.7526 58.42 54.3993 58.28C53.0459 58.14 51.8093 57.93 50.6893 57.65L60.9093 9.35ZM60.9793 50.37C61.1659 50.4633 61.4926 50.5333 61.9593 50.58C62.4726 50.6267 63.0093 50.6733 63.5693 50.72C64.1759 50.72 64.7826 50.7433 65.3893 50.79C65.9959 50.79 66.5093 50.79 66.9293 50.79C68.0959 50.79 69.2859 50.65 70.4993 50.37C71.7593 50.09 72.8793 49.6233 73.8593 48.97C74.8859 48.3167 75.7259 47.4767 76.3793 46.45C77.0326 45.4233 77.3593 44.1633 77.3593 42.67C77.3593 41.5033 77.1026 40.5467 76.5893 39.8C76.0759 39.0533 75.3993 38.47 74.5593 38.05C73.7193 37.5833 72.7393 37.28 71.6193 37.14C70.5459 36.9533 69.4259 36.86 68.2593 36.86H63.7793L60.9793 50.37ZM65.3893 29.58H68.3993C69.0526 29.58 69.8226 29.58 70.7093 29.58C71.5959 29.5333 72.3426 29.4633 72.9493 29.37C73.7893 29.23 74.6759 28.9967 75.6093 28.67C76.5893 28.3433 77.4526 27.8767 78.1993 27.27C78.9926 26.6633 79.6459 25.8933 80.1593 24.96C80.6726 24.0267 80.9293 22.86 80.9293 21.46C80.9293 19.4533 80.2526 18.0767 78.8993 17.33C77.5926 16.5833 75.9126 16.21 73.8593 16.21C72.6459 16.21 71.5259 16.2333 70.4993 16.28C69.4726 16.3267 68.6793 16.3967 68.1193 16.49L65.3893 29.58ZM130.794 66.75H124.424L125.264 58H117.774H101.674H92.5744L102.934 9H112.034L103.424 49.46H119.524L128.134 9H137.164L128.624 49.46H134.504L130.794 66.75Z" fill="#333333"/>
<rect width="151.601" height="18" transform="matrix(-1 0 0 1 151.601 27)" fill="white"/>
<path d="M13.5091 37.021L13.7431 37.822H13.7881L13.9681 36.994L15.1741 33.7H15.9391L14.3461 37.795C14.1841 38.221 14.0401 38.578 13.9141 38.866C13.7941 39.148 13.6711 39.379 13.5451 39.559C13.4191 39.733 13.2841 39.859 13.1401 39.937C12.9961 40.009 12.8191 40.045 12.6091 40.045C12.4111 40.045 12.2521 40.03 12.1321 40C12.0181 39.964 11.9101 39.913 11.8081 39.847L12.0331 39.226C12.1531 39.292 12.2641 39.334 12.3661 39.352C12.4681 39.37 12.5611 39.379 12.6451 39.379C12.8131 39.379 12.9541 39.295 13.0681 39.127C13.1821 38.953 13.2811 38.698 13.3651 38.362L11.0341 33.7H11.8981L13.5091 37.021ZM17.3677 33.7V35.788C17.3677 36.61 17.7397 37.021 18.4837 37.021C18.7657 37.021 19.0297 36.985 19.2757 36.913C19.5217 36.835 19.7227 36.733 19.8787 36.607V33.7H20.6257V40H19.8787V37.282C19.7167 37.372 19.5037 37.462 19.2397 37.552C18.9757 37.642 18.6727 37.687 18.3307 37.687C18.0787 37.687 17.8477 37.66 17.6377 37.606C17.4277 37.546 17.2477 37.45 17.0977 37.318C16.9477 37.18 16.8307 36.997 16.7467 36.769C16.6627 36.541 16.6207 36.259 16.6207 35.923V33.7H17.3677ZM22.16 33.7H25.589V34.366H22.907V36.427H25.364V37.093H22.907V39.334H25.634V40H22.16V33.7ZM26.9852 33.7H30.4052V34.366H27.7322V36.256C27.8342 36.238 27.9602 36.22 28.1102 36.202C28.2602 36.184 28.4042 36.175 28.5422 36.175C28.8482 36.175 29.1392 36.205 29.4152 36.265C29.6912 36.319 29.9342 36.415 30.1442 36.553C30.3542 36.691 30.5192 36.88 30.6392 37.12C30.7652 37.354 30.8282 37.651 30.8282 38.011C30.8282 38.371 30.7652 38.683 30.6392 38.947C30.5132 39.205 30.3452 39.418 30.1352 39.586C29.9252 39.748 29.6792 39.871 29.3972 39.955C29.1212 40.033 28.8302 40.072 28.5242 40.072C28.4222 40.072 28.3052 40.069 28.1732 40.063C28.0472 40.063 27.9122 40.057 27.7682 40.045C27.6302 40.033 27.4922 40.018 27.3542 40C27.2222 39.988 27.0992 39.967 26.9852 39.937V33.7ZM28.6142 39.424C28.8062 39.424 28.9892 39.397 29.1632 39.343C29.3372 39.289 29.4872 39.211 29.6132 39.109C29.7452 39.001 29.8472 38.866 29.9192 38.704C29.9972 38.542 30.0362 38.353 30.0362 38.137C30.0362 37.861 29.9912 37.639 29.9012 37.471C29.8172 37.297 29.7032 37.162 29.5592 37.066C29.4152 36.97 29.2472 36.907 29.0552 36.877C28.8692 36.841 28.6742 36.823 28.4702 36.823C28.4162 36.823 28.3532 36.826 28.2812 36.832C28.2092 36.838 28.1372 36.844 28.0652 36.85C27.9932 36.856 27.9272 36.865 27.8672 36.877C27.8072 36.883 27.7622 36.889 27.7322 36.895V39.37C27.7742 39.382 27.8282 39.391 27.8942 39.397C27.9662 39.403 28.0412 39.409 28.1192 39.415C28.2032 39.421 28.2872 39.424 28.3712 39.424C28.4552 39.424 28.5362 39.424 28.6142 39.424ZM35.7044 37.111H32.6804V40H31.9334V33.7H32.6804V36.445H35.7044V33.7H36.4514V40H35.7044V37.111ZM37.7193 36.85C37.7193 35.8 37.9413 34.996 38.3853 34.438C38.8293 33.874 39.4623 33.592 40.2843 33.592C40.7283 33.592 41.1123 33.67 41.4363 33.826C41.7603 33.982 42.0273 34.204 42.2373 34.492C42.4533 34.774 42.6123 35.116 42.7143 35.518C42.8163 35.914 42.8673 36.358 42.8673 36.85C42.8673 37.9 42.6423 38.707 42.1923 39.271C41.7483 39.829 41.1123 40.108 40.2843 40.108C39.8463 40.108 39.4653 40.03 39.1413 39.874C38.8233 39.718 38.5563 39.499 38.3403 39.217C38.1303 38.929 37.9743 38.587 37.8723 38.191C37.7703 37.789 37.7193 37.342 37.7193 36.85ZM38.5113 36.85C38.5113 37.198 38.5443 37.528 38.6103 37.84C38.6823 38.152 38.7903 38.428 38.9343 38.668C39.0783 38.902 39.2613 39.091 39.4833 39.235C39.7113 39.373 39.9783 39.442 40.2843 39.442C40.8423 39.442 41.2803 39.232 41.5983 38.812C41.9163 38.386 42.0753 37.732 42.0753 36.85C42.0753 36.508 42.0393 36.181 41.9673 35.869C41.9013 35.551 41.7933 35.275 41.6433 35.041C41.4993 34.801 41.3133 34.612 41.0853 34.474C40.8633 34.33 40.5963 34.258 40.2843 34.258C39.7323 34.258 39.2973 34.471 38.9793 34.897C38.6673 35.317 38.5113 35.968 38.5113 36.85ZM43.8986 37.075H46.0766V37.741H43.8986V37.075ZM51.1738 35.14C51.1738 35.29 51.1498 35.443 51.1018 35.599C51.0538 35.755 50.9818 35.902 50.8858 36.04C50.7898 36.172 50.6668 36.289 50.5168 36.391C50.3668 36.493 50.1898 36.571 49.9858 36.625V36.661C50.1658 36.691 50.3368 36.742 50.4988 36.814C50.6668 36.886 50.8138 36.985 50.9398 37.111C51.0658 37.237 51.1678 37.39 51.2458 37.57C51.3238 37.75 51.3628 37.963 51.3628 38.209C51.3628 38.533 51.2938 38.815 51.1558 39.055C51.0238 39.289 50.8468 39.481 50.6248 39.631C50.4088 39.781 50.1598 39.892 49.8778 39.964C49.5958 40.036 49.3078 40.072 49.0138 40.072C48.9118 40.072 48.7918 40.072 48.6538 40.072C48.5158 40.072 48.3718 40.066 48.2218 40.054C48.0718 40.048 47.9218 40.036 47.7718 40.018C47.6218 40.006 47.4898 39.985 47.3758 39.955V33.754C47.5978 33.718 47.8558 33.688 48.1498 33.664C48.4438 33.64 48.7648 33.628 49.1128 33.628C49.3468 33.628 49.5838 33.649 49.8238 33.691C50.0698 33.727 50.2918 33.802 50.4898 33.916C50.6878 34.024 50.8498 34.177 50.9758 34.375C51.1078 34.573 51.1738 34.828 51.1738 35.14ZM49.0858 39.424C49.2778 39.424 49.4638 39.403 49.6438 39.361C49.8238 39.313 49.9828 39.241 50.1208 39.145C50.2588 39.043 50.3668 38.92 50.4448 38.776C50.5288 38.632 50.5708 38.461 50.5708 38.263C50.5708 38.017 50.5198 37.819 50.4178 37.669C50.3218 37.519 50.1928 37.402 50.0308 37.318C49.8748 37.234 49.6978 37.177 49.4998 37.147C49.3018 37.117 49.1038 37.102 48.9058 37.102H48.1228V39.361C48.1648 39.373 48.2248 39.382 48.3028 39.388C48.3808 39.394 48.4648 39.4 48.5548 39.406C48.6448 39.412 48.7378 39.418 48.8338 39.424C48.9298 39.424 49.0138 39.424 49.0858 39.424ZM48.5908 36.472C48.6928 36.472 48.8158 36.469 48.9598 36.463C49.1038 36.457 49.2238 36.448 49.3198 36.436C49.4638 36.388 49.5988 36.331 49.7248 36.265C49.8508 36.193 49.9618 36.112 50.0578 36.022C50.1598 35.926 50.2378 35.818 50.2918 35.698C50.3518 35.572 50.3818 35.437 50.3818 35.293C50.3818 35.095 50.3428 34.933 50.2648 34.807C50.1928 34.675 50.0938 34.57 49.9678 34.492C49.8418 34.414 49.6978 34.36 49.5358 34.33C49.3738 34.294 49.2088 34.276 49.0408 34.276C48.8428 34.276 48.6598 34.282 48.4918 34.294C48.3298 34.3 48.2068 34.312 48.1228 34.33V36.472H48.5908ZM52.3706 36.85C52.3706 35.8 52.5926 34.996 53.0366 34.438C53.4806 33.874 54.1136 33.592 54.9356 33.592C55.3796 33.592 55.7636 33.67 56.0876 33.826C56.4116 33.982 56.6786 34.204 56.8886 34.492C57.1046 34.774 57.2636 35.116 57.3656 35.518C57.4676 35.914 57.5186 36.358 57.5186 36.85C57.5186 37.9 57.2936 38.707 56.8436 39.271C56.3996 39.829 55.7636 40.108 54.9356 40.108C54.4976 40.108 54.1166 40.03 53.7926 39.874C53.4746 39.718 53.2076 39.499 52.9916 39.217C52.7816 38.929 52.6256 38.587 52.5236 38.191C52.4216 37.789 52.3706 37.342 52.3706 36.85ZM53.1626 36.85C53.1626 37.198 53.1956 37.528 53.2616 37.84C53.3336 38.152 53.4416 38.428 53.5856 38.668C53.7296 38.902 53.9126 39.091 54.1346 39.235C54.3626 39.373 54.6296 39.442 54.9356 39.442C55.4936 39.442 55.9316 39.232 56.2496 38.812C56.5676 38.386 56.7266 37.732 56.7266 36.85C56.7266 36.508 56.6906 36.181 56.6186 35.869C56.5526 35.551 56.4446 35.275 56.2946 35.041C56.1506 34.801 55.9646 34.612 55.7366 34.474C55.5146 34.33 55.2476 34.258 54.9356 34.258C54.3836 34.258 53.9486 34.471 53.6306 34.897C53.3186 35.317 53.1626 35.968 53.1626 36.85ZM63.4628 41.161H62.9498L62.8148 40H58.3958L58.2608 41.161H57.7388V39.334H58.3778C58.4258 39.268 58.4978 39.115 58.5938 38.875C58.6958 38.629 58.7948 38.281 58.8908 37.831C58.9928 37.375 59.0828 36.808 59.1608 36.13C59.2388 35.446 59.2778 34.636 59.2778 33.7H62.6438V39.334H63.4628V41.161ZM61.8968 39.334V34.366H59.9798C59.9618 35.026 59.9258 35.62 59.8718 36.148C59.8238 36.676 59.7638 37.144 59.6918 37.552C59.6198 37.954 59.5388 38.302 59.4488 38.596C59.3588 38.89 59.2658 39.136 59.1698 39.334H61.8968ZM68.3313 35.734L68.3853 35.014H68.3493L67.9623 35.752L64.9203 40H64.4793V33.7H65.2263V38.02L65.1633 38.731H65.1993L65.5953 37.993L68.6373 33.7H69.0783V40H68.3313V35.734ZM74.6733 34.366H72.7113V40H71.9643V34.366H70.0023V33.7H74.6733V34.366ZM75.5975 33.7H79.0265V34.366H76.3445V36.427H78.8015V37.093H76.3445V39.334H79.0715V40H75.5975V33.7ZM83.7617 34.366H81.8807C81.8207 35.566 81.7397 36.565 81.6377 37.363C81.5417 38.155 81.3947 38.773 81.1967 39.217C81.0647 39.505 80.9087 39.715 80.7287 39.847C80.5487 39.979 80.3537 40.045 80.1437 40.045C80.0357 40.045 79.9427 40.036 79.8647 40.018C79.7867 40.006 79.7117 39.985 79.6397 39.955L79.7387 39.307C79.7987 39.325 79.8617 39.334 79.9277 39.334C80.0297 39.334 80.1287 39.301 80.2247 39.235C80.3267 39.169 80.4257 39.046 80.5217 38.866C80.6057 38.704 80.6837 38.488 80.7557 38.218C80.8337 37.948 80.8997 37.606 80.9537 37.192C81.0137 36.778 81.0617 36.286 81.0977 35.716C81.1337 35.14 81.1607 34.468 81.1787 33.7H84.5087V40H83.7617V34.366ZM86.0389 33.7H86.7859V36.148C86.8159 36.142 86.8669 36.136 86.9389 36.13C87.0109 36.118 87.0889 36.109 87.1729 36.103C87.2569 36.097 87.3439 36.091 87.4339 36.085C87.5239 36.079 87.6049 36.076 87.6769 36.076C87.9649 36.076 88.2439 36.106 88.5139 36.166C88.7899 36.22 89.0329 36.319 89.2429 36.463C89.4589 36.607 89.6329 36.802 89.7649 37.048C89.8969 37.288 89.9629 37.594 89.9629 37.966C89.9629 38.326 89.8999 38.638 89.7739 38.902C89.6479 39.166 89.4739 39.385 89.2519 39.559C89.0299 39.733 88.7689 39.862 88.4689 39.946C88.1749 40.03 87.8539 40.072 87.5059 40.072C87.4219 40.072 87.3199 40.069 87.1999 40.063C87.0799 40.063 86.9509 40.057 86.8129 40.045C86.6809 40.039 86.5459 40.027 86.4079 40.009C86.2759 39.991 86.1529 39.967 86.0389 39.937V33.7ZM87.6049 39.424C87.8209 39.424 88.0219 39.397 88.2079 39.343C88.3999 39.283 88.5679 39.196 88.7119 39.082C88.8559 38.962 88.9669 38.815 89.0449 38.641C89.1289 38.461 89.1709 38.254 89.1709 38.02C89.1709 37.768 89.1259 37.558 89.0359 37.39C88.9459 37.222 88.8259 37.09 88.6759 36.994C88.5319 36.892 88.3639 36.823 88.1719 36.787C87.9799 36.745 87.7819 36.724 87.5779 36.724C87.5239 36.724 87.4579 36.727 87.3799 36.733C87.3019 36.739 87.2239 36.745 87.1459 36.751C87.0679 36.757 86.9959 36.766 86.9299 36.778C86.8639 36.79 86.8159 36.799 86.7859 36.805V39.37C86.8699 39.388 86.9899 39.403 87.1459 39.415C87.3019 39.421 87.4549 39.424 87.6049 39.424ZM94.9224 39.739C94.7424 39.877 94.5144 39.973 94.2384 40.027C93.9624 40.081 93.6684 40.108 93.3564 40.108C92.9784 40.108 92.6244 40.045 92.2944 39.919C91.9644 39.787 91.6764 39.589 91.4304 39.325C91.1844 39.061 90.9894 38.725 90.8454 38.317C90.7014 37.903 90.6294 37.414 90.6294 36.85C90.6294 36.262 90.7074 35.764 90.8634 35.356C91.0254 34.942 91.2354 34.606 91.4934 34.348C91.7574 34.084 92.0514 33.892 92.3754 33.772C92.6994 33.652 93.0294 33.592 93.3654 33.592C93.7254 33.592 94.0194 33.613 94.2474 33.655C94.4754 33.691 94.6704 33.742 94.8324 33.808L94.6524 34.465C94.3644 34.327 93.9534 34.258 93.4194 34.258C93.1734 34.258 92.9304 34.303 92.6904 34.393C92.4504 34.483 92.2344 34.63 92.0424 34.834C91.8564 35.038 91.7064 35.305 91.5924 35.635C91.4784 35.965 91.4214 36.37 91.4214 36.85C91.4214 37.282 91.4754 37.66 91.5834 37.984C91.6914 38.308 91.8384 38.578 92.0244 38.794C92.2164 39.01 92.4384 39.172 92.6904 39.28C92.9484 39.388 93.2274 39.442 93.5274 39.442C93.7974 39.442 94.0314 39.415 94.2294 39.361C94.4334 39.307 94.6044 39.238 94.7424 39.154L94.9224 39.739ZM97.202 37.084H96.779V40H96.032V33.7H96.779V36.634L97.184 36.508L99.299 33.7H100.163L98.057 36.409L97.679 36.706L98.138 37.066L100.442 40H99.497L97.202 37.084ZM105.377 35.734L105.431 35.014H105.395L105.008 35.752L101.966 40H101.525V33.7H102.272V38.02L102.209 38.731H102.245L102.641 37.993L105.683 33.7H106.124V40H105.377V35.734ZM111.503 35.734L111.557 35.014H111.521L111.134 35.752L108.092 40H107.651V33.7H108.398V38.02L108.335 38.731H108.371L108.767 37.993L111.809 33.7H112.25V40H111.503V35.734ZM109.208 32.17C109.232 32.392 109.316 32.563 109.46 32.683C109.604 32.803 109.796 32.863 110.036 32.863C110.276 32.863 110.465 32.803 110.603 32.683C110.747 32.563 110.834 32.395 110.864 32.179L111.503 32.332C111.437 32.656 111.284 32.914 111.044 33.106C110.81 33.292 110.471 33.385 110.027 33.385C109.601 33.385 109.25 33.304 108.974 33.142C108.704 32.974 108.545 32.71 108.497 32.35L109.208 32.17ZM121.343 41.161H120.83L120.695 40H116.177V33.7H116.924V39.334H119.759V33.7H120.506V39.334H121.343V41.161ZM122.355 33.7H125.784V34.366H123.102V36.427H125.559V37.093H123.102V39.334H125.829V40H122.355V33.7ZM130.951 37.111H127.927V40H127.18V33.7H127.927V36.445H130.951V33.7H131.698V40H130.951V37.111ZM137.295 34.366H135.333V40H134.586V34.366H132.624V33.7H137.295V34.366ZM138.22 33.763C138.448 33.709 138.694 33.673 138.958 33.655C139.222 33.637 139.483 33.628 139.741 33.628C140.017 33.628 140.296 33.655 140.578 33.709C140.866 33.763 141.127 33.862 141.361 34.006C141.595 34.15 141.784 34.348 141.928 34.6C142.078 34.852 142.153 35.173 142.153 35.563C142.153 35.947 142.084 36.271 141.946 36.535C141.808 36.799 141.625 37.015 141.397 37.183C141.169 37.345 140.908 37.462 140.614 37.534C140.32 37.606 140.017 37.642 139.705 37.642C139.675 37.642 139.624 37.642 139.552 37.642C139.486 37.642 139.414 37.642 139.336 37.642C139.264 37.636 139.192 37.63 139.12 37.624C139.048 37.618 138.997 37.612 138.967 37.606V40H138.22V33.763ZM139.759 34.276C139.603 34.276 139.453 34.279 139.309 34.285C139.165 34.291 139.051 34.306 138.967 34.33V36.94C138.997 36.952 139.045 36.961 139.111 36.967C139.177 36.967 139.246 36.97 139.318 36.976C139.39 36.976 139.459 36.976 139.525 36.976C139.591 36.976 139.639 36.976 139.669 36.976C139.873 36.976 140.074 36.958 140.272 36.922C140.476 36.88 140.659 36.808 140.821 36.706C140.983 36.604 141.112 36.46 141.208 36.274C141.31 36.088 141.361 35.851 141.361 35.563C141.361 35.317 141.313 35.113 141.217 34.951C141.127 34.783 141.004 34.651 140.848 34.555C140.698 34.453 140.527 34.381 140.335 34.339C140.143 34.297 139.951 34.276 139.759 34.276Z" fill="#333333"/>
</svg>
