<svg width="16" height="21" viewBox="0 0 16 21" fill="none" xmlns="http://www.w3.org/2000/svg">
<path d="M7.62427 3.89578C6.5826 3.89578 5.69718 4.26037 4.96802 4.98953C4.23885 5.7187 3.87427 6.60412 3.87427 7.64578C3.87427 8.68745 4.23885 9.57287 4.96802 10.302C5.69718 11.0312 6.5826 11.3958 7.62427 11.3958C8.66593 11.3958 9.55135 11.0312 10.2805 10.302C11.0097 9.57287 11.3743 8.68745 11.3743 7.64578C11.3743 6.60412 11.0097 5.7187 10.2805 4.98953C9.55135 4.26037 8.66593 3.89578 7.62427 3.89578ZM7.62427 10.1458C6.94718 10.1458 6.36125 9.89839 5.86646 9.40359C5.37166 8.9088 5.12427 8.32287 5.12427 7.64578C5.12427 6.9687 5.37166 6.38276 5.86646 5.88797C6.36125 5.39318 6.94718 5.14578 7.62427 5.14578C8.30135 5.14578 8.88729 5.39318 9.38208 5.88797C9.87687 6.38276 10.1243 6.9687 10.1243 7.64578C10.1243 8.32287 9.87687 8.9088 9.38208 9.40359C8.88729 9.89839 8.30135 10.1458 7.62427 10.1458ZM7.62427 0.145782C6.2701 0.145782 5.0201 0.484324 3.87427 1.16141C2.72843 1.83849 1.81698 2.74995 1.13989 3.89578C0.462809 5.04162 0.124268 6.29162 0.124268 7.64578C0.124268 8.47912 0.228434 9.2213 0.436768 9.87234C0.645101 10.4973 1.04875 11.2786 1.64771 12.2161C2.06437 12.8671 2.92375 14.1302 4.22583 16.0052L6.84302 19.7552C7.02531 20.0156 7.28573 20.1458 7.62427 20.1458C7.96281 20.1458 8.22323 20.0156 8.40552 19.7552L11.0227 16.0052C12.3248 14.1302 13.1842 12.8671 13.6008 12.2161C14.1998 11.2786 14.6034 10.4973 14.8118 9.87234C15.0201 9.2213 15.1243 8.47912 15.1243 7.64578C15.1243 6.29162 14.7857 5.04162 14.1086 3.89578C13.4316 2.74995 12.5201 1.83849 11.3743 1.16141C10.2284 0.484324 8.97843 0.145782 7.62427 0.145782ZM7.62427 18.6614C6.99927 17.7499 6.19198 16.5911 5.20239 15.1848C3.95239 13.388 3.13208 12.2031 2.74146 11.6302C2.19458 10.7447 1.83 10.0416 1.64771 9.52078C1.46541 8.97391 1.37427 8.34891 1.37427 7.64578C1.37427 6.81245 1.53052 6.01818 1.84302 5.26297C2.15552 4.50776 2.61125 3.83068 3.21021 3.23172C3.80916 2.63276 4.48625 2.17703 5.24146 1.86453C5.99666 1.55203 6.79093 1.39578 7.62427 1.39578C8.4576 1.39578 9.25187 1.55203 10.0071 1.86453C10.7623 2.17703 11.4394 2.63276 12.0383 3.23172C12.6373 3.83068 13.093 4.50776 13.4055 5.26297C13.718 6.01818 13.8743 6.81245 13.8743 7.64578C13.8743 8.34891 13.7831 8.97391 13.6008 9.52078C13.4185 10.0416 13.054 10.7447 12.5071 11.6302C12.1165 12.2031 11.2961 13.388 10.0461 15.1848L7.62427 18.6614Z" fill="#0F001A"/>
</svg>
