<?xml version="1.0" encoding="UTF-8" standalone="no" ?>
<!DOCTYPE svg PUBLIC "-//W3C//DTD SVG 1.1//EN" "http://www.w3.org/Graphics/SVG/1.1/DTD/svg11.dtd">
<svg xmlns="http://www.w3.org/2000/svg" xmlns:xlink="http://www.w3.org/1999/xlink" version="1.1" width="400" height="400" viewBox="0 0 400 400" xml:space="preserve">
<desc>Created with Fabric.js 3.6.2</desc>
<defs>
</defs>
<g transform="matrix(8.33 0 0 8.33 200 150)" id="_Path_"  >
<circle style="stroke: rgb(48,60,66); stroke-width: 1; stroke-dasharray: none; stroke-linecap: butt; stroke-dashoffset: 0; stroke-linejoin: miter; stroke-miterlimit: 10; fill: rgb(255,255,255); fill-rule: nonzero; opacity: 1;"  cx="0" cy="0" r="5.5" />
</g>
<g transform="matrix(8.33 0 0 8.33 200 150)" id="_Path_2"  >
<circle style="stroke: rgb(48,60,66); stroke-width: 1; stroke-dasharray: none; stroke-linecap: butt; stroke-dashoffset: 0; stroke-linejoin: miter; stroke-miterlimit: 10; fill: none; fill-rule: nonzero; opacity: 1;"  cx="0" cy="0" r="2.5" />
</g>
<g transform="matrix(8.33 0 0 8.33 200.08 247.17)" id="_Path_3"  >
<path style="stroke: rgb(48,60,66); stroke-width: 1; stroke-dasharray: none; stroke-linecap: round; stroke-dashoffset: 0; stroke-linejoin: round; stroke-miterlimit: 4; fill: rgb(255,255,255); fill-rule: nonzero; opacity: 1;"  transform=" translate(-12.01, -17.66)" d="M 17.12 12.16 a 8.56 8.56 0 0 1 -10.25 0 A 1.47 1.47 0 0 0 4.5 13.3 a 2.17 2.17 0 0 0 1 1.81 a 11.84 11.84 0 0 0 3 1.43 a 12.23 12.23 0 0 0 1.52 0.36 L 6 20.76 A 1.61 1.61 0 0 0 8.32 23 L 12 19.21 L 15.68 23 A 1.61 1.61 0 0 0 18 20.76 L 14 16.89 a 12.23 12.23 0 0 0 1.52 -0.36 a 11.84 11.84 0 0 0 3 -1.43 a 2.17 2.17 0 0 0 1 -1.81 A 1.47 1.47 0 0 0 17.12 12.16 Z" stroke-linecap="round" />
</g>
</svg>