<svg width="21" height="21" viewBox="0 0 21 21" fill="none" xmlns="http://www.w3.org/2000/svg">
<path d="M19.4551 19.9308L20.3535 15.9855C20.4316 15.6991 20.3926 15.4256 20.2363 15.1652C20.1061 14.9048 19.9108 14.7095 19.6504 14.5793L15.4316 12.7824C15.1712 12.6782 14.9108 12.6522 14.6504 12.7043C14.39 12.7824 14.1686 12.9256 13.9863 13.134L12.2676 15.2433C10.9134 14.5663 9.70247 13.6939 8.63477 12.6262C7.56706 11.5585 6.69466 10.3475 6.01758 8.99335L8.12695 7.2746C8.33529 7.09231 8.46549 6.87095 8.51758 6.61053C8.5957 6.35012 8.58268 6.0897 8.47852 5.82928L6.68164 1.61053C6.55143 1.35012 6.35612 1.14178 6.0957 0.985535C5.83529 0.855326 5.56185 0.829285 5.27539 0.90741L1.33008 1.80585C1.06966 1.88397 0.848307 2.0272 0.666016 2.23553C0.483724 2.46991 0.392578 2.73033 0.392578 3.01678C0.392578 6.24595 1.19987 9.24074 2.81445 12.0012C4.40299 14.7095 6.53841 16.8449 9.2207 18.4074C12.0072 20.048 15.028 20.8683 18.2832 20.8683C18.5436 20.8683 18.778 20.7772 18.9863 20.5949C19.2207 20.4126 19.377 20.1913 19.4551 19.9308ZM1.64258 3.01678L5.54883 2.11835L7.3457 6.3371L4.49414 8.64178C5.43164 10.673 6.51237 12.3006 7.73633 13.5246C8.96029 14.7486 10.5879 15.8293 12.6191 16.7668L14.9238 13.9152L19.1426 15.7121L18.2441 19.6183C15.2493 19.6183 12.4629 18.8631 9.88477 17.3527C7.35872 15.8683 5.36654 13.8762 3.9082 11.3762C2.39779 8.79803 1.64258 6.01158 1.64258 3.01678Z" fill="#0F001A"/>
</svg>
